<?xml version="1.0" encoding="UTF-8" standalone="no"?>
<!-- Created with Inkscape (http://www.inkscape.org/) -->

<svg
   width="210mm"
   height="297mm"
   viewBox="0 0 210 297"
   version="1.1"
   id="svg1"
   inkscape:version="1.3.2 (091e20e, 2023-11-25, custom)"
   sodipodi:docname="radio_signal.svg"
   xmlns:inkscape="http://www.inkscape.org/namespaces/inkscape"
   xmlns:sodipodi="http://sodipodi.sourceforge.net/DTD/sodipodi-0.dtd"
   xmlns="http://www.w3.org/2000/svg"
   xmlns:svg="http://www.w3.org/2000/svg">
  <sodipodi:namedview
     id="namedview1"
     pagecolor="#ffffff"
     bordercolor="#000000"
     borderopacity="0.25"
     inkscape:showpageshadow="2"
     inkscape:pageopacity="0.0"
     inkscape:pagecheckerboard="0"
     inkscape:deskcolor="#d1d1d1"
     inkscape:document-units="mm"
     inkscape:zoom="2.0899411"
     inkscape:cx="291.39578"
     inkscape:cy="536.13952"
     inkscape:window-width="2560"
     inkscape:window-height="1369"
     inkscape:window-x="-8"
     inkscape:window-y="-8"
     inkscape:window-maximized="1"
     inkscape:current-layer="layer1" />
  <defs
     id="defs1" />
  <g
     inkscape:label="Layer 1"
     inkscape:groupmode="layer"
     id="layer1">
    <ellipse
       style="fill:#000000;stroke-width:0.127439"
       id="path1"
       cx="97.838493"
       cy="143.61758"
       rx="3.4233565"
       ry="3.3431296"
       inkscape:label="center" />
    <path
       style="fill:#000000;stroke-width:0.147825"
       d="m 92.308926,134.76406 c -11.420373,8.80003 -0.563969,17.28069 -0.563969,17.28069 l 0.881201,-0.81613 c 0,0 -9.058752,-8.12582 0.740208,-15.54197"
       id="path2"
       inkscape:label="L1" />
    <path
       style="fill:#000000;stroke-width:0.213543"
       d="m 88.083844,129.75198 c -15.90714,13.18393 -0.785538,25.88939 -0.785538,25.88939 l 1.227402,-1.2227 c 0,0 -12.617699,-12.17385 1.031018,-23.28449"
       id="path2-6"
       inkscape:label="L2" />
    <path
       style="fill:#000000;stroke-width:0.260228"
       d="m 81.463132,125.32238 c -18.093001,17.21324 -0.893481,33.8018 -0.893481,33.8018 l 1.396063,-1.59638 c 0,0 -14.351545,-15.89447 1.172694,-30.40079"
       id="path2-6-9"
       inkscape:label="L3" />
    <path
       style="fill:#000000;stroke-width:0.147825"
       d="m 103.05866,134.7476 c 11.42037,8.80003 0.56397,17.28069 0.56397,17.28069 l -0.8812,-0.81613 c 0,0 9.05875,-8.12582 -0.74021,-15.54197"
       id="path2-9"
       inkscape:label="R1" />
    <path
       style="fill:#000000;stroke-width:0.213543"
       d="m 108.22521,129.95094 c 15.90714,13.18393 0.78554,25.88939 0.78554,25.88939 l -1.2274,-1.2227 c 0,0 12.6177,-12.17385 -1.03102,-23.28449"
       id="path2-6-7"
       inkscape:label="R2" />
    <path
       style="fill:#000000;stroke-width:0.260228"
       d="m 114.32313,125.64794 c 18.093,17.21324 0.89348,33.8018 0.89348,33.8018 l -1.39607,-1.59638 c 0,0 14.35155,-15.89447 -1.17269,-30.40079"
       id="path2-6-9-1"
       inkscape:label="R3" />
  </g>
</svg>
